<svg t="1751530577958" class="icon" viewBox="0 0 1088 1024" version="1.1"
  xmlns="http://www.w3.org/2000/svg" p-id="15541" width="200" height="200">
  <path
    d="M630.016 754.016v32q0 10.016-7.488 17.504t-18.496 7.488H219.04q-11.008 0-18.496-7.488t-7.488-17.504V465.024q0-11.008 7.488-18.496t18.496-7.488h384.992q11.008 0 18.496 7.488t7.488 18.496v38.016h103.008v-83.008q0-34.016-24.512-58.496t-59.488-24.512H174.016q-35.008 0-59.488 24.512t-24.512 58.496v410.016q0 35.008 24.512 59.488t59.488 24.512h475.008q35.008 0 59.488-24.512t24.512-59.488v-76h-103.008zM434.016 270.016v-32q0-10.016 7.488-17.504t18.496-7.488h384.992q11.008 0 18.496 7.488t7.488 17.504v320.992q0 11.008-7.488 18.496t-18.496 7.488H460q-11.008 0-18.496-7.488t-7.488-18.496v-38.016h-103.008v83.008q0 34.016 24.512 58.496t59.488 24.512h475.008q35.008 0 59.488-24.512t24.512-58.496V193.984q0-35.008-24.512-59.488t-59.488-24.512H415.008q-35.008 0-59.488 24.512t-24.512 59.488v76h103.008z"
    p-id="15542"></path>
</svg>