<svg t="1747864108861" class="icon" viewBox="0 0 1024 1024" version="1.1"
  xmlns="http://www.w3.org/2000/svg" p-id="5828" width="200" height="200">
  <path
    d="M85.333333 85.333333h384v384H85.333333V85.333333z m85.333334 85.333334v213.333333h213.333333V170.666667H170.666667z m384-85.333334h384v384h-384V85.333333z m85.333333 85.333334v213.333333h213.333333V170.666667h-213.333333zM234.666667 234.666667h85.504v85.504H234.666667V234.666667z m469.333333 0h85.504v85.504H704V234.666667z m-149.504 319.829333H640V640h-85.504v-85.504z m298.666667 0H938.666667V640h-85.504v-85.504zM85.333333 554.666667h384v384H85.333333v-384z m85.333334 85.333333v213.333333h213.333333v-213.333333H170.666667z m511.829333 42.496H768v85.333333h85.333333v85.333334h85.333334V938.666667h-85.504v-85.333334h-85.333334v-85.333333h-85.333333v-85.504zM234.666667 704h85.504v85.504H234.666667V704z m319.829333 149.162667H640V938.666667h-85.504v-85.504z"
    fill="#000000" p-id="5829"></path>
</svg>