<svg t="1741929174217" class="icon" viewBox="0 0 1024 1024" version="1.1"
  xmlns="http://www.w3.org/2000/svg" p-id="4821" width="200" height="200">
  <path
    d="M510.208 53.333333h3.584c58.410667 0 104.704 0 141.653333 3.754667 37.888 3.84 69.504 11.946667 97.152 30.421333 22.144 14.762667 41.130667 33.749333 55.893334 55.893334 18.517333 27.648 26.581333 59.306667 30.421333 97.152 3.754667 36.949333 3.754667 83.242667 3.754667 141.653333v259.584c0 58.410667 0 104.704-3.754667 141.653333-3.84 37.888-11.946667 69.504-30.378667 97.152a202.794667 202.794667 0 0 1-55.936 55.893334c-27.648 18.517333-59.306667 26.581333-97.152 30.421333-36.949333 3.754667-83.242667 3.754667-141.653333 3.754667h-3.584c-58.410667 0-104.704 0-141.653333-3.754667-37.888-3.84-69.504-11.946667-97.152-30.378667a202.709333 202.709333 0 0 1-55.893334-55.936c-18.517333-27.648-26.581333-59.306667-30.421333-97.152-3.754667-36.949333-3.754667-83.242667-3.754667-141.653333V382.208c0-58.410667 0-104.704 3.754667-141.653333 3.84-37.888 11.946667-69.504 30.421333-97.152a202.666667 202.666667 0 0 1 55.893334-55.893334c27.648-18.517333 59.306667-26.581333 97.152-30.421333 36.949333-3.754667 83.242667-3.754667 141.653333-3.754667zM375.04 120.746667c-32.853333 3.370667-52.693333 9.685333-68.096 19.968a138.666667 138.666667 0 0 0-38.229333 38.229333c-10.282667 15.402667-16.64 35.285333-19.968 68.096-3.413333 33.322667-3.413333 76.373333-3.413334 136.96v256c0 60.586667 0 103.637333 3.413334 136.96 3.370667 32.853333 9.685333 52.693333 19.968 68.096 10.112 15.104 23.125333 28.16 38.229333 38.229333 15.402667 10.282667 35.285333 16.64 68.096 19.968 33.322667 3.413333 76.373333 3.413333 136.96 3.413334s103.637333 0 136.96-3.413334c32.853333-3.370667 52.693333-9.685333 68.096-19.968 15.104-10.112 28.16-23.125333 38.229333-38.229333 10.282667-15.402667 16.64-35.285333 19.968-68.096 3.413333-33.322667 3.413333-76.373333 3.413334-136.96V384c0-60.586667 0-103.637333-3.413334-136.96-3.370667-32.853333-9.685333-52.693333-19.968-68.096a138.666667 138.666667 0 0 0-38.229333-38.229333c-15.402667-10.282667-35.285333-16.64-68.096-19.968-33.322667-3.413333-76.373333-3.413333-136.96-3.413334s-103.637333 0-136.96 3.413334zM512 373.333333a96 96 0 1 0 0 192 96 96 0 0 0 0-192zM352 469.333333a160 160 0 1 1 320 0 160 160 0 0 1-320 0z"
    p-id="4822"></path>
  <path
    d="M554.666667 213.333333a42.666667 42.666667 0 1 1-85.333334 0 42.666667 42.666667 0 0 1 85.333334 0zM554.666667 725.333333a42.666667 42.666667 0 1 1-85.333334 0 42.666667 42.666667 0 0 1 85.333334 0z"
    p-id="4823"></path>
</svg>