<svg t="1742743082208" class="icon" viewBox="0 0 1024 1024" version="1.1"
    xmlns="http://www.w3.org/2000/svg" p-id="17754" width="200" height="200">
    <path
        d="M368 400V258.933333C368 183.466667 427.04 119.626667 502.453333 117.333333A138.666667 138.666667 0 0 1 645.333333 256v68.8a5.333333 5.333333 0 0 0 5.333334 5.333333h64a5.333333 5.333333 0 0 0 5.333333-5.333333V260C720 143.52 628.266667 45.493333 512 42.666667a213.333333 213.333333 0 0 0-218.666667 213.333333v144a5.333333 5.333333 0 0 1-5.333333 5.333333H170.666667a5.333333 5.333333 0 0 0-5.333334 5.333334v565.333333a5.333333 5.333333 0 0 0 5.333334 5.333333h672a5.333333 5.333333 0 0 0 5.333333-5.333333V410.666667a5.333333 5.333333 0 0 0-5.333333-5.333334H373.333333a5.333333 5.333333 0 0 1-5.333333-5.333333z m400 506.666667H245.333333a5.333333 5.333333 0 0 1-5.333333-5.333334V485.333333a5.333333 5.333333 0 0 1 5.333333-5.333333h522.666667a5.333333 5.333333 0 0 1 5.333333 5.333333v416a5.333333 5.333333 0 0 1-5.333333 5.333334z"
        p-id="17755"></path>
    <path d="M506.666667 693.333333m-48 0a48 48 0 1 0 96 0 48 48 0 1 0-96 0Z" p-id="17756"></path>
</svg>