<svg t="1746520233133" class="icon" viewBox="0 0 1024 1024" version="1.1"
  xmlns="http://www.w3.org/2000/svg" p-id="6887" width="200" height="200">
  <path
    d="M627.2 195.2H102.4C44.8 195.2 0 243.2 0 300.8v428.8c0 57.6 44.8 105.6 102.4 105.6h528c57.6 0 102.4-48 102.4-105.6V300.8c-3.2-57.6-48-105.6-105.6-105.6zM304 444.8c-6.4 35.2-35.2 64-70.4 70.4-64 12.8-118.4-44.8-105.6-105.6 6.4-35.2 35.2-64 70.4-70.4 64-12.8 118.4 41.6 105.6 105.6zM979.2 256l-137.6 89.6c-25.6 19.2-44.8 32-44.8 60.8v198.4c0 25.6 19.2 44.8 44.8 60.8l137.6 89.6c25.6 19.2 44.8 6.4 44.8-25.6V288c0-32-19.2-48-44.8-32z"
    p-id="6888"></path>
</svg>